PathFileType	4	(X/Y/Z)	D:\MotionData\NordSprintingStudy\Kristen_Nord_test_zero_plates\Trimmed_NordZeroed000004.trc
DataRate	CameraRate	NumFrames	NumMarkers	Units	OrigDataRate	OrigDataStartFrame	OrigNumFrames
200.00	200.00	      4	52	mm	200.00	479	      1912
Frame#	Time	C7			R_Shoulder			L_Shoulder			Sternum			R_humerus			R_elbow_med			R_elbow_lat			R_forearm			R_wrist_radius			R_wrist_ulna			L_humerus			L_elbow_med			L_elbow_lat			L_forearm			L_wrist_radius			L_wrist_ulna			r.ASIS			r.PSIS			r_IC			L.ASIS			L.PSIS			l_IC			r_thigh1			r_thigh2			r_thigh3			r_thigh4			r_thigh5			r_knee			r_mknee			r_shank_antsup			r_sh2			r_sh3			r_sh4			r_ankle			r_mankle			r_calc			r_5meta			r_toe			L_thigh1			L_thigh2			L_thigh3			L_thigh4			L_knee			L_mknee			L_shank_antsup			L_sh2			L_sh3			L_ankle			L_mankle			L_calc			L_5meta			L_toe			
		X1	Y1	Z1	X2	Y2	Z2	X3	Y3	Z3	X4	Y4	Z4	X5	Y5	Z5	X6	Y6	Z6	X7	Y7	Z7	X8	Y8	Z8	X9	Y9	Z9	X10	Y10	Z10	X11	Y11	Z11	X12	Y12	Z12	X13	Y13	Z13	X14	Y14	Z14	X15	Y15	Z15	X16	Y16	Z16	X17	Y17	Z17	X18	Y18	Z18	X19	Y19	Z19	X20	Y20	Z20	X21	Y21	Z21	X22	Y22	Z22	X23	Y23	Z23	X24	Y24	Z24	X25	Y25	Z25	X26	Y26	Z26	X27	Y27	Z27	X28	Y28	Z28	X29	Y29	Z29	X30	Y30	Z30	X31	Y31	Z31	X32	Y32	Z32	X33	Y33	Z33	X34	Y34	Z34	X35	Y35	Z35	X36	Y36	Z36	X37	Y37	Z37	X38	Y38	Z38	X39	Y39	Z39	X40	Y40	Z40	X41	Y41	Z41	X42	Y42	Z42	X43	Y43	Z43	X44	Y44	Z44	X45	Y45	Z45	X46	Y46	Z46	X47	Y47	Z47	X48	Y48	Z48	X49	Y49	Z49	X50	Y50	Z50	X51	Y51	Z51	X52	Y52	Z52	

479	2.390	1238.83203	518.84723	1257.39294	1354.74658	567.19513	1255.06995	1103.06030	548.99292	1262.47925	1223.50989	636.81848	1187.37000	1517.61011	501.17886	1226.01672	1650.19849	533.77380	1156.37793	1633.33447	464.96213	1203.87842	1632.24731	543.18982	1301.60278	1584.90942	655.47162	1350.98755	1643.30615	626.39148	1377.57178	950.83038	459.07550	1225.40869	793.16553	497.05676	1175.03894	819.98193	434.71930	1234.43945	844.19617	499.39447	1311.64563	859.07581	601.18951	1384.13684	929.16797	592.86218	1359.67932	1347.73230	508.83466	724.27161	1314.72913	375.68982	866.82935	1394.40979	469.79099	833.47455	1119.32971	482.59372	719.52197	1200.39746	362.78986	868.96771	1089.61951	466.61969	826.79749	1365.86609	451.10748	495.68805	1358.80518	416.00134	385.06778	1396.07837	379.96753	364.39752	1424.41797	362.59683	518.84479	1412.75146	330.37466	407.04962	1395.97131	309.21167	306.04797	1271.28833	296.44501	308.92972	1418.78479	203.40895	308.90579	1425.39026	81.52511	317.82391	1422.01013	206.20273	386.31921	1411.07043	89.76797	397.98434	1422.46118	-78.72456	361.74756	1345.86829	-78.60971	338.73190	1356.08252	-83.36899	432.18454	1424.49683	-198.91566	297.28195	1385.28979	-183.50005	246.77470	1041.89209	389.43439	541.85413	1031.18225	346.62091	409.05173	1052.19507	276.90118	581.07593	1061.66211	240.13905	446.83459	1033.39478	261.64090	337.67432	1160.95337	264.13773	310.08954	1025.92065	163.71478	321.73196	1039.91382	171.69807	410.13971	1048.19312	49.74167	408.67099	1082.60583	-112.80684	376.83450	1156.72815	-103.59721	348.74841	1126.78064	-117.72393	434.72650	1105.50525	-243.63699	295.30963	1139.64526	-216.06068	253.13777	
480	2.395	1239.27563	519.42645	1257.49097	1354.73889	567.32544	1255.01477	1103.05615	549.09460	1262.43677	1223.47473	636.93628	1187.32666	1517.58435	501.28589	1225.99585	1650.18665	533.85083	1156.35474	1633.29309	465.01273	1203.82837	1632.19434	543.47742	1301.58826	1584.92456	655.54279	1350.95276	1643.33557	626.45691	1377.56445	950.83044	459.20377	1225.40686	793.17059	497.10577	1175.03699	820.00238	434.76328	1234.44336	844.19690	499.46896	1311.62244	859.17511	601.34924	1384.39624	929.15729	592.93738	1359.66382	1347.66345	508.93826	724.23199	1314.70300	375.80984	866.79730	1394.40674	469.94678	833.43262	1119.28101	482.66379	719.49902	1200.40051	362.91641	868.95734	1089.59814	466.70865	826.76642	1365.82935	451.15421	495.66153	1358.93774	416.32727	384.93420	1396.04297	379.99197	364.41684	1424.38684	362.67606	518.83173	1412.71533	330.40726	407.05576	1395.96912	309.21579	306.02759	1271.29675	296.45105	308.90942	1418.78088	203.41843	308.92355	1425.41260	81.54568	317.83478	1422.00415	206.19855	386.33740	1411.26270	89.84938	398.00220	1422.50916	-78.69272	361.71271	1345.97644	-78.66868	338.65109	1356.06030	-83.37593	432.22189	1424.52185	-198.89957	297.24161	1385.25427	-183.54570	246.37193	1041.88696	389.45184	541.82904	1031.26099	346.91400	408.69827	1052.16919	276.97586	581.04224	1061.65100	240.15723	446.85532	1033.00854	261.45016	338.08496	1160.97583	264.14465	310.08041	1025.92456	163.61589	321.76471	1039.91345	171.68785	410.12527	1048.49744	49.34605	408.89185	1082.62256	-112.82906	376.94159	1156.68518	-103.67103	348.75705	1126.78589	-117.71360	434.76285	1105.50867	-243.63399	295.34433	1139.62512	-216.06804	253.19016	
481	2.400	1238.79517	519.10663	1257.32544	1354.74475	567.44366	1254.97607	1103.06897	549.22296	1262.35059	1223.49170	637.05042	1187.29980	1517.58887	501.37823	1225.88525	1650.18384	533.90393	1156.27356	1633.29614	465.08994	1203.73938	1632.23242	543.31720	1301.47681	1584.93909	655.60333	1350.90466	1643.36926	626.49377	1377.51233	950.86285	459.27365	1225.33850	793.17798	497.17667	1174.99646	820.00159	434.83353	1234.43164	844.20557	499.52686	1311.60730	859.03760	601.38110	1384.05420	929.13019	593.01208	1359.62549	1347.63684	509.01511	724.18304	1314.70654	375.96783	866.71912	1394.37720	470.06125	833.37921	1119.25903	482.70969	719.51434	1200.42798	363.04718	868.93719	1089.55920	466.77826	826.78369	1365.83936	451.19125	495.63077	1358.38708	416.25003	384.68799	1396.04248	380.02298	364.38574	1424.37976	362.77100	518.82172	1412.72217	330.44495	407.05695	1395.99597	309.22372	305.99402	1271.28125	296.46408	308.91586	1418.81250	203.41273	308.93677	1425.41638	81.56142	317.82541	1421.99512	206.24159	386.34015	1411.14380	89.82010	398.03064	1422.55481	-78.69334	361.69443	1345.88965	-78.57574	338.81305	1356.16565	-83.39265	432.15524	1424.61340	-198.87706	297.19653	1385.46057	-183.46272	246.65460	1041.82849	389.48691	541.76947	1031.15515	346.61780	409.02631	1052.17395	276.98734	581.01331	1061.65466	240.17279	446.83954	1033.42114	261.65585	337.71796	1160.97363	264.16925	310.06491	1025.93835	163.66705	321.78287	1039.93237	171.70908	410.11435	1048.50659	49.33362	408.94989	1082.63086	-112.80571	376.91107	1156.78345	-103.63773	348.69431	1126.80090	-117.70362	434.78842	1105.49915	-243.64796	295.44272	1139.63489	-216.07175	253.17101	
482	2.405	1238.29260	519.42627	1257.25476	1354.76550	567.58704	1254.83582	1103.09973	549.33881	1262.26062	1223.47656	637.19781	1187.17688	1517.60779	501.46967	1225.78088	1650.20679	533.98193	1156.13135	1633.28943	465.15521	1203.62964	1632.26929	543.38232	1301.36267	1584.93652	655.69916	1350.84131	1643.42554	626.64227	1377.36108	950.90808	459.35059	1225.23083	793.16174	497.21606	1175.01379	820.02716	434.88330	1234.41333	844.25763	499.61801	1311.50977	859.01398	601.48114	1384.02258	929.11389	593.13281	1359.58862	1347.61316	509.12009	724.12262	1314.73840	376.14920	866.67572	1394.37720	470.21765	833.26508	1119.20410	482.81189	719.46893	1200.48132	363.17587	868.85071	1089.50269	466.89081	826.73834	1365.81213	451.25897	495.55179	1357.89795	414.49271	384.71533	1396.02075	380.04935	364.36896	1424.32764	362.82516	518.83960	1412.72986	330.49454	407.03195	1396.04309	309.25284	305.89380	1271.29089	296.47900	308.89337	1418.83728	203.47255	308.92117	1425.48169	81.58270	317.77112	1421.98657	206.26744	386.32144	1411.26257	89.89289	398.11240	1422.67090	-78.65642	361.56567	1345.94543	-78.58739	338.73328	1356.25378	-83.34763	432.07047	1424.74573	-198.86485	297.02542	1385.50098	-183.49028	246.51169	1041.79871	389.56036	541.74976	1031.13318	346.61563	408.98727	1052.18250	276.94653	581.10596	1061.67749	240.17230	446.89282	1033.39893	261.71216	337.71362	1160.98108	264.21475	310.05408	1025.96338	163.68231	321.77908	1040.00366	171.72026	410.09882	1048.51099	49.36324	408.91699	1082.65564	-112.81076	376.98233	1156.85840	-103.58707	348.60492	1126.82825	-117.69446	434.80035	1105.50854	-243.60678	295.38794	1139.66797	-216.06367	253.26509	
